{"title":"KAMASUTRA - A Tale of Love (1996) Uncut","uid":6465052,"size":419878979,"categoryP":"video","categoryS":"movies","magnet":"?xt=urn:btih:11713747402084ea72bbb9925be53011bfa591b2&amp;dn=KAMASUTRA+-+A+Tale+of+Love+%281996%29+Uncut+&amp;tr=udp%3A%2F%2Ftracker.openbittorrent.com%3A80&amp;tr=udp%3A%2F%2Fopen.demonii.com%3A1337&amp;tr=udp%3A%2F%2Ftracker.coppersurfer.tk%3A6969&amp;tr=udp%3A%2F%2Fexodus.desync.com%3A6969","seeders":3,"leechers":2,"uploader":"Robin5555","files":2,"time":1307936335,"description":"------------------------------:TPB IS BENEDICTION TO ME :--------------------------\n\n\nScreen Link :---\n\n &lt;a href=&quot;\nhttp://www.shotpix.com/images/18782982167634367331.jpg&quot; rel=&quot;nofollow&quot; target=&quot;_NEW&quot;&gt;\nhttp://www.shotpix.com/images/18782982167634367331.jpg&lt;/a&gt;\n\n\n\nGeneral Info :---\n\n\nFormat                           : Matroska\nFile size                        : 400 MiB\nDuration                         : 1h 54mn 13sec\nOverall bit rate                 : 490 Kbps\nMovie name                       : P\nEncoded date                     : UTC 2011-06-12 21:54:11\nWriting application              : mkvmerge v4.6.0 ('Still Crazy After All These Years') built on Mar 10 2011 02:50:32\nWriting library                  : libebml v1.2.0 + libmatroska v1.1.0\n\nVideo\nID                               : 1\nFormat                           : AVC\nFormat/Info                      : Advanced Video Codec\nFormat profile                   : &lt;a class=&quot;__cf_email__&quot; href=&quot;/cdn-cgi/l/email-protection&quot; data-cfemail=&quot;cd85a4aaa58d81f9e3fd&quot;&gt;[email&amp;#160;protected]&lt;/a&gt;&lt;script cf-hash='f9e31' type=&quot;text/javascript&quot;&gt;\n/* &lt;![CDATA[ */!function(){try{var t=&quot;currentScript&quot;in document?document.currentScript:function(){for(var t=document.getElementsByTagName(&quot;script&quot;),e=t.length;e--;)if(t[e].getAttribute(&quot;cf-hash&quot;))return t[e]}();if(t&amp;&amp;t.previousSibling){var e,r,n,i,c=t.previousSibling,a=c.getAttribute(&quot;data-cfemail&quot;);if(a){for(e=&quot;&quot;,r=parseInt(a.substr(0,2),16),n=2;a.length-n;n+=2)i=parseInt(a.substr(n,2),16)^r,e+=String.fromCharCode(i);e=document.createTextNode(e),c.parentNode.replaceChild(e,c)}}}catch(u){}}();/* ]]&gt; */&lt;/script&gt;\nFormat settings, CABAC           : Yes\nFormat settings, ReFrames        : 3 frames\nCodec ID                         : V_MPEG4/ISO/AVC\nDuration                         : 1h 54mn 13sec\nBit rate mode                    : Variable\nBit rate                         : 361 Kbps\nMaximum bit rate                 : 25.0 Mbps\nWidth                            : 720 pixels\nHeight                           : 480 pixels\nDisplay aspect ratio             : 4:3\nOriginal display aspect ratio    : 4:3\nFrame rate                       : 23.976 fps\nStandard                         : NTSC\nColor space                      : YUV\nChroma subsampling               : 4:2:0\nBit depth                        : 8 bits\nScan type                        : Progressive\nBits/(Pixel*Frame)               : 0.044\nStream size                      : 288 MiB (72%)\n\n\nAudio\nID                               : 2\nFormat                           : MPEG Audio\nFormat version                   : Version 1\nFormat profile                   : Layer 3\nMode                             : Joint stereo\nMode extension                   : MS Stereo\nCodec ID                         : A_MPEG/L3\nCodec ID/Hint                    : MP3\nDuration                         : 1h 54mn 13sec\nBit rate mode                    : Constant\nBit rate                         : 128 Kbps\nChannel(s)                       : 2 channels\nSampling rate                    : 48.0 KHz\nCompression mode                 : Lossy\nStream size                      : 105 MiB (26%)\n\nText\nID                               : 3\nFormat                           : UTF-8\nCodec ID                         : S_TEXT/UTF8\nCodec ID/Info                    : UTF-8 Plain Text\nLanguage                         : English\n\n\n\n\n------------------------------:TPB IS BENEDICTION TO ME :--------------------------\n\n\n\n","torrent":{"xt":"urn:btih:11713747402084ea72bbb9925be53011bfa591b2","amp;dn":"KAMASUTRA+-+A+Tale+of+Love+%281996%29+Uncut+","amp;tr":["udp%3A%2F%2Ftracker.openbittorrent.com%3A80","udp%3A%2F%2Fopen.demonii.com%3A1337","udp%3A%2F%2Ftracker.coppersurfer.tk%3A6969","udp%3A%2F%2Fexodus.desync.com%3A6969"],"infoHash":"11713747402084ea72bbb9925be53011bfa591b2","infoHashBuffer":{"type":"Buffer","data":[17,113,55,71,64,32,132,234,114,187,185,146,91,229,48,17,191,165,145,178]},"announce":[],"urlList":[]}}